# xmcd
# 
# Track frame offsets:
#     150
#     17635
#     37494
#     39632
#     59112
#     75449
#     90350
#     105677
#     108481
#     122183
#     138472
#     152381
#     168305
# 
# Disc length: 2442
# 
# Revision: 0
# Processed by: cddbd v1.5.2PL0 Copyright (c) Steve Scherf et al.
# Submitted via: fre:ac v1.0.31
# 
DISCID=a909880d
DTITLE=Les soeurs Boulay - La mort des étoiles
DYEAR=2019
DGENRE=Folk
TTITLE0=Nous après nous
TTITLE1=La fatigue du nombre
TTITLE2=Interlude
TTITLE3=La mort des étoiles
TTITLE4=Bateaux
TTITLE5=Les plants de fraises
TTITLE6=Au doigt
TTITLE7=Interlude
TTITLE8=Devant l'homme et le monde
TTITLE9=Il me voulait dans la maison
TTITLE10=Léonard
TTITLE11=Je rêve
TTITLE12=Immensité
EXTD=
EXTT0=
EXTT1=
EXTT2=
EXTT3=
EXTT4=
EXTT5=
EXTT6=
EXTT7=
EXTT8=
EXTT9=
EXTT10=
EXTT11=
EXTT12=
PLAYORDER=
